{"title":"Battleship-720p MP4 AAC x264 BRRip 2012-CC","uid":7503830,"size":3141941631,"categoryP":"video","categoryS":"hd___movies","magnet":"?xt=urn:btih:ffc238a52bb89e56d059c3b799932c2f4ec44bc4&amp;dn=Battleship-720p+MP4+AAC+x264+BRRip+2012-CC&amp;tr=udp%3A%2F%2Ftracker.openbittorrent.com%3A80&amp;tr=udp%3A%2F%2Fopen.demonii.com%3A1337&amp;tr=udp%3A%2F%2Ftracker.coppersurfer.tk%3A6969&amp;tr=udp%3A%2F%2Fexodus.desync.com%3A6969","seeders":0,"leechers":2,"uploader":"Caveman44","files":-1,"time":1344103208,"description":" &lt;a href=&quot;http://www.imdb.com/title/tt1440129/&quot; rel=&quot;nofollow&quot; target=&quot;_NEW&quot;&gt;http://www.imdb.com/title/tt1440129/&lt;/a&gt;\n\nSource: Battleship.2012.PROPER.720p.BluRay.x264-SPARKS Thanks!\n\nSubs: Arabic, Brazilian, Bulgarian, Danish, Dutch, English, Farsi-Persian, Finnish, Greek, Polish, Romanian and Turkish.\n\nSample and Screens included.\n\nGeneral\nComplete name                    : Battleship-720p MP4 AAC x264 BRRip 2012-CC.mp4\nFormat                           : MPEG-4\nFormat profile                   : Base Media\nCodec ID                         : isom\nFile size                        : 2.89 GiB\nDuration                         : 2h 11mn\nOverall bit rate                 : 3 154 Kbps\nEncoded date                     : UTC 2012-08-03 15:09:47\n\nVideo\nID                               : 1\nFormat                           : AVC\nFormat/Info                      : Advanced Video Codec\nFormat profile                   : &lt;a class=&quot;__cf_email__&quot; href=&quot;/cdn-cgi/l/email-protection&quot; data-cfemail=&quot;440c2d232c0408776a75&quot;&gt;[email&amp;#160;protected]&lt;/a&gt;&lt;script cf-hash='f9e31' type=&quot;text/javascript&quot;&gt;\n/* &lt;![CDATA[ */!function(){try{var t=&quot;currentScript&quot;in document?document.currentScript:function(){for(var t=document.getElementsByTagName(&quot;script&quot;),e=t.length;e--;)if(t[e].getAttribute(&quot;cf-hash&quot;))return t[e]}();if(t&amp;&amp;t.previousSibling){var e,r,n,i,c=t.previousSibling,a=c.getAttribute(&quot;data-cfemail&quot;);if(a){for(e=&quot;&quot;,r=parseInt(a.substr(0,2),16),n=2;a.length-n;n+=2)i=parseInt(a.substr(n,2),16)^r,e+=String.fromCharCode(i);e=document.createTextNode(e),c.parentNode.replaceChild(e,c)}}}catch(u){}}();/* ]]&gt; */&lt;/script&gt;\nFormat settings, CABAC           : Yes\nFormat settings, ReFrames        : 5 frames\nCodec ID                         : avc1\nCodec ID/Info                    : Advanced Video Coding\nDuration                         : 2h 11mn\nBit rate mode                    : Variable\nBit rate                         : 2 765 Kbps\nNominal bit rate                 : 2 786 Kbps\nMaximum bit rate                 : 29.9 Mbps\nWidth                            : 1 280 pixels\nHeight                           : 528 pixels\nDisplay aspect ratio             : 2.35:1\nFrame rate mode                  : Variable\nFrame rate                       : 23.976 fps\nMinimum frame rate               : 15.938 fps\nMaximum frame rate               : 25.000 fps\nResolution                       : 24 bits\nColorimetry                      : 4:2:0\nScan type                        : Progressive\nBits/(Pixel*Frame)               : 0.171\nStream size                      : 2.53 GiB (88%)\nWriting library                  : x264 core 112\n\nAudio\nID                               : 2\nFormat                           : AAC\nFormat/Info                      : Advanced Audio Codec\nFormat version                   : Version 4\nFormat profile                   : LC\nFormat settings, SBR             : No\nCodec ID                         : 40\nDuration                         : 2h 11mn\nBit rate mode                    : Variable\nBit rate                         : 384 Kbps\nMaximum bit rate                 : 646 Kbps\nChannel(s)                       : 6 channels\nChannel positions                : Front: L C R, Rear: L R, LFE\nSampling rate                    : 48.0 KHz\nResolution                       : 16 bits\nStream size                      : 360 MiB (12%)\nLanguage                         : English\n\nEnjoy...","torrent":{"xt":"urn:btih:ffc238a52bb89e56d059c3b799932c2f4ec44bc4","amp;dn":"Battleship-720p+MP4+AAC+x264+BRRip+2012-CC","amp;tr":["udp%3A%2F%2Ftracker.openbittorrent.com%3A80","udp%3A%2F%2Fopen.demonii.com%3A1337","udp%3A%2F%2Ftracker.coppersurfer.tk%3A6969","udp%3A%2F%2Fexodus.desync.com%3A6969"],"infoHash":"ffc238a52bb89e56d059c3b799932c2f4ec44bc4","infoHashBuffer":{"type":"Buffer","data":[255,194,56,165,43,184,158,86,208,89,195,183,153,147,44,47,78,196,75,196]},"announce":[],"urlList":[]}}